<svg width="143" height="30" viewBox="0 0 143 30" fill="none" xmlns="http://www.w3.org/2000/svg">
<g clip-path="url(#clip0_407_1602)">
<path d="M16.9451 10.6694C18.7134 10.6694 20.2014 11.2643 21.4091 12.4557C22.6167 13.6472 23.2205 15.1083 23.2205 16.8406C23.2205 18.573 22.6167 20.0359 21.4091 21.2256C20.2014 22.417 18.7134 23.0119 16.9451 23.0119H13.7157V27.7652C13.7157 28.475 13.1406 29.0501 12.4308 29.0501H11.3777C10.6678 29.0501 10.0928 28.475 10.0928 27.7652V11.9562C10.0928 11.2463 10.6678 10.6694 11.3795 10.6694H16.9469H16.9451ZM16.9451 19.6225C17.716 19.6225 18.354 19.3566 18.8626 18.821C19.3694 18.2873 19.6245 17.626 19.6245 16.8389C19.6245 16.0517 19.3712 15.3688 18.8626 14.8441C18.354 14.3193 17.716 14.057 16.9451 14.057H13.7157V19.6243H16.9451V19.6225Z" fill="white"/>
<path d="M35.9722 28.4121L32.6296 22.6704H29.8855V27.7652C29.8855 28.475 29.3104 29.0519 28.5988 29.0519H27.5475C26.8376 29.0519 26.2607 28.4768 26.2607 27.7652V11.9562C26.2607 11.2463 26.8358 10.6694 27.5475 10.6694H33.6144C35.3127 10.6694 36.7558 11.2643 37.9472 12.4557C39.1369 13.6472 39.7335 15.0813 39.7335 16.7616C39.7335 17.8991 39.4101 18.954 38.7613 19.9263C38.1144 20.8985 37.2554 21.6281 36.1879 22.1187L39.5053 27.7706C39.8378 28.3366 39.4298 29.0519 38.7721 29.0519H37.0846C36.6264 29.0519 36.2041 28.8093 35.974 28.4139L35.9722 28.4121ZM29.8855 14.0587V19.4932H33.6144C34.2973 19.4932 34.8832 19.2272 35.3738 18.6917C35.8644 18.1579 36.1088 17.5146 36.1088 16.7616C36.1088 16.0086 35.8626 15.3706 35.3738 14.8441C34.8832 14.3193 34.2973 14.057 33.6144 14.057H29.8855V14.0587Z" fill="white"/>
<path d="M46.4818 25.5835H52.9424C53.6522 25.5835 54.2291 26.1586 54.2291 26.8702V27.7652C54.2291 28.475 53.654 29.0519 52.9424 29.0519H44.1456C43.4358 29.0519 42.8589 28.4768 42.8589 27.7652V11.9562C42.8589 11.2463 43.434 10.6694 44.1456 10.6694H52.8112C53.521 10.6694 54.0979 11.2445 54.0979 11.9562V12.8511C54.0979 13.561 53.5228 14.1378 52.8112 14.1378H46.4818V18.0501H52.1534C52.8633 18.0501 53.4402 18.6252 53.4402 19.3368V20.1778C53.4402 20.8877 52.8651 21.4646 52.1534 21.4646H46.4818V25.5871V25.5835Z" fill="white"/>
<path d="M75.8639 11.9562V27.7653C75.8639 28.4751 75.2888 29.052 74.5772 29.052H73.551C72.8412 29.052 72.2643 28.4769 72.2643 27.7653V17.1301L67.1857 25.4847C67.1192 25.5926 67.0042 25.6609 66.8784 25.6645C66.7419 25.6698 66.6143 25.5998 66.5442 25.4847L61.4997 17.1768V27.7671C61.4997 28.4769 60.9247 29.0538 60.213 29.0538H59.1617C58.4519 29.0538 57.875 28.4787 57.875 27.7671V11.9562C57.875 11.2464 58.4501 10.6695 59.1617 10.6695H60.8815C61.3308 10.6695 61.7477 10.9031 61.9814 11.2877L66.8766 19.3477L71.745 11.2895C71.9786 10.9049 72.3955 10.6677 72.8448 10.6677H74.5772C75.287 10.6677 75.8639 11.2428 75.8639 11.9544V11.9562Z" fill="white"/>
<path d="M91.8422 28.1929L90.976 25.7416H83.4265L82.616 28.1713C82.4417 28.6961 81.9493 29.0501 81.3957 29.0501H79.9113C79.1781 29.0501 78.6642 28.3259 78.905 27.6322L84.5407 11.5302C84.7204 11.0145 85.2074 10.6694 85.7537 10.6694H88.4206C88.9651 10.6694 89.4521 11.0127 89.6336 11.5266L95.3142 27.6286C95.5586 28.3223 95.0447 29.0483 94.3097 29.0483H93.0517C92.5072 29.0483 92.0202 28.705 91.8386 28.1911L91.8422 28.1929ZM84.6072 22.3541H89.781L87.1285 14.8441L84.6072 22.3541Z" fill="white"/>
<path d="M114.487 19.1765C115.197 19.1765 115.774 19.7516 115.774 20.4632V20.5944C115.774 23.22 114.933 25.3477 113.252 26.9741C111.572 28.6023 109.401 29.4164 106.74 29.4164C103.904 29.4164 101.553 28.4927 99.6896 26.647C97.826 24.7996 96.8933 22.5461 96.8933 19.8864C96.8933 17.2267 97.817 14.9408 99.6626 13.0862C101.51 11.2316 103.798 10.3025 106.529 10.3025C108.244 10.3025 109.811 10.6925 111.229 11.4706C112.151 11.9774 112.94 12.5938 113.595 13.318C114.147 13.929 114.002 14.8905 113.288 15.3002L112.418 15.8016C111.904 16.0981 111.252 16.0065 110.846 15.5752C110.469 15.1726 110.005 14.824 109.455 14.5293C108.571 14.0566 107.586 13.8194 106.501 13.8194C104.75 13.8194 103.311 14.3927 102.182 15.5392C101.054 16.6858 100.489 18.1342 100.489 19.8846C100.489 21.635 101.063 23.0493 102.209 24.1778C103.356 25.3064 104.874 25.8707 106.765 25.8707C108.165 25.8707 109.326 25.5598 110.244 24.938C111.162 24.3162 111.789 23.4626 112.122 22.3772H107.841C107.131 22.3772 106.554 21.8021 106.554 21.0904V20.4597C106.554 19.7498 107.13 19.1729 107.841 19.1729H114.485L114.487 19.1765Z" fill="white"/>
<path d="M120.42 10.6694H121.471C122.181 10.6694 122.758 11.2445 122.758 11.9562V27.7652C122.758 28.475 122.183 29.0519 121.471 29.0519H120.42C119.71 29.0519 119.133 28.4768 119.133 27.7652V11.9562C119.133 11.2463 119.708 10.6694 120.42 10.6694Z" fill="white"/>
<path d="M135.678 29.4182C132.912 29.4182 130.628 28.4998 128.825 26.6614C127.023 24.823 126.121 22.5569 126.121 19.8612C126.121 17.1656 127.023 14.8761 128.825 13.0467C130.628 11.2172 132.912 10.3025 135.678 10.3025C137.34 10.3025 138.876 10.6925 140.285 11.4706C141.227 11.9918 142.03 12.6369 142.695 13.4043C143.218 14.0081 143.047 14.9444 142.356 15.3451L141.47 15.8591C140.941 16.1664 140.266 16.0622 139.865 15.6003C139.489 15.169 139.038 14.8078 138.512 14.5167C137.671 14.053 136.725 13.8212 135.676 13.8212C133.889 13.8212 132.45 14.3819 131.357 15.5015C130.263 16.6211 129.717 18.0749 129.717 19.8594C129.717 21.6439 130.263 23.0726 131.357 24.1922C132.452 25.3118 133.891 25.8725 135.676 25.8725C136.725 25.8725 137.676 25.6407 138.524 25.177C139.051 24.8895 139.496 24.5373 139.865 24.1185C140.267 23.6603 140.941 23.556 141.468 23.8616L142.356 24.3755C143.046 24.7763 143.218 25.7108 142.695 26.3146C142.032 27.0819 141.232 27.7271 140.296 28.2483C138.896 29.0282 137.356 29.4164 135.674 29.4164L135.678 29.4182Z" fill="white"/>
<path d="M12.3478 0.581055H12.346C11.4677 0.581055 10.7556 1.29311 10.7556 2.17148V5.69198C10.7556 6.57035 11.4677 7.28241 12.346 7.28241H12.3478C13.2262 7.28241 13.9383 6.57035 13.9383 5.69198V2.17148C13.9383 1.29311 13.2262 0.581055 12.3478 0.581055Z" fill="#FF6550"/>
<path d="M4.79101 3.11698C4.16922 2.49519 3.16285 2.49519 2.54105 3.11698C1.91926 3.73877 1.91926 4.74515 2.54105 5.36694L6.10828 8.93417C6.73007 9.55596 7.73645 9.55596 8.35824 8.93417C8.98003 8.31237 8.98003 7.306 8.35824 6.68421L4.79101 3.11698Z" fill="#FF6550"/>
<path d="M5.11093 11.335H1.59043C0.712058 11.335 0 12.047 0 12.9254V12.9272C0 13.8056 0.712058 14.5176 1.59043 14.5176H5.11093C5.9893 14.5176 6.70136 13.8056 6.70136 12.9272V12.9254C6.70136 12.047 5.9893 11.335 5.11093 11.335Z" fill="#FF6550"/>
</g>
<defs>
<clipPath id="clip0_407_1602">
<rect width="143" height="28.8379" fill="white" transform="translate(0 0.581055)"/>
</clipPath>
</defs>
</svg>
